<svg width="20" height="20" viewBox="0 0 20 20" xmlns="http://www.w3.org/2000/svg">
    <path d="M8.86,6.34A1.52,1.52,0,0,0,9,4.26,31.94,31.94,0,0,0,6.23.73a2.72,2.72,0,0,0-3.7,0L1.36,1.89C-1.44,4.7.27,10.63,4.82,15.18s10.48,6.26,13.29,3.45c.46-.45.86-.84,1.17-1.17a2.7,2.7,0,0,0,0-3.68A29.89,29.89,0,0,0,15.74,11a1.48,1.48,0,0,0-1.92,0,5.72,5.72,0,0,0-1,.83l-.77.77A6.72,6.72,0,0,1,9.3,10.7,6.74,6.74,0,0,1,7.38,7.9l.77-.77.28-.29A5.45,5.45,0,0,0,8.86,6.34ZM13.51,14l.77-.77a6.81,6.81,0,0,1,.51-.47,28.07,28.07,0,0,1,3,2.38.71.71,0,0,1,0,.92q-.43.46-1.12,1.12c-1.82,1.82-6.61.44-10.48-3.44S1,5.1,2.78,3.3L3.93,2.15a.75.75,0,0,1,.9,0A29.78,29.78,0,0,1,7.21,5.21L7,5.47l-.25.25L6,6.48c-1.3,1.3-.19,3.52,1.92,5.63S12.21,15.34,13.51,14Z" 
    fill="#fff"/>
</svg>